<svg data-name="Layer 1" xmlns="http://www.w3.org/2000/svg" viewBox="0 0 349.86 147.13"><defs><style>.cls-1{fill:#ff6400;}.cls-2{fill:#f8f8f8;}.cls-3{fill:#06c5ac;}.cls-4{fill:#fff;}.cls-5{fill:#6d6d6d;}</style></defs><title>TrueCar Buy From Home</title><polygon class="cls-1" points="168.98 149.42 249.01 149.42 268.74 91.89 168.98 91.89 168.98 149.42"/><polygon class="cls-2" points="199.34 54.63 41.76 83.08 41.76 150.45 211.39 150.45 211.39 102.82 245.54 102.82 245.54 150.45 314.74 150.45 314.74 83.08 199.34 54.63"/><path class="cls-3" d="M26.5,128.83a20.59,20.59,0,0,1,20.6,20.58H5.91A20.59,20.59,0,0,1,26.5,128.83Z"/><polygon class="cls-4" points="5.91 98.92 199.44 60.12 339.81 100.64 342.72 90.54 199.25 49.13 5.91 88.28 5.91 98.92"/><polygon class="cls-5" points="314.74 94.13 199.88 62.1 41.76 91.83 41.76 99.89 199.88 69.12 314.74 101.22 314.74 94.13"/><path class="cls-3" d="M80.6,121.43a38.47,38.47,0,0,0-37,28h74A38.47,38.47,0,0,0,80.6,121.43Z"/></svg>