<?xml version="1.0" encoding="utf-8"?>
<!-- Generator: Adobe Illustrator 22.1.0, SVG Export Plug-In . SVG Version: 6.00 Build 0)  -->
<svg version="1.1" id="J.D._Power_Logo" xmlns="http://www.w3.org/2000/svg" xmlns:xlink="http://www.w3.org/1999/xlink" x="0px"
	 y="0px" viewBox="0 0 720 116.7" style="enable-background:new 0 0 720 116.7;" xml:space="preserve">
<style type="text/css">
	.st0{fill:#F5333F;}
</style>
<g>
	<path class="st0" d="M27.2,82.1c0,7.4,4,11.1,12.7,11.1c8.7,0,11.9-3.7,11.9-11.1V11.7c0-2.7,1-3.9,3.6-3.9h12.9
		c2.7,0,3.6,1.2,3.6,3.9v74c0,12.4-6.8,24.2-31.9,24.2C15,109.8,7.5,98.1,7.5,85.6v-8.9c0-2.7,1-3.7,3.7-3.7h12.4
		c2.7,0,3.6,1,3.6,3.7V82.1z"/>
	<path class="st0" d="M99.5,104.9c0,2.7-0.9,3.7-3.6,3.7H83.4c-2.7,0-3.7-1-3.7-3.7v-12c0-2.7,1-3.7,3.7-3.7H96c2.7,0,3.6,1,3.6,3.7
		V104.9z"/>
	<path class="st0" d="M123.8,108.6c-2.4,0-3.1-1.3-3.1-3.8V11.7c0-2.7,0.9-3.9,3.6-3.9h32.3c26.8,0,36.2,11.7,36.2,24.2v52.5
		c0,12.4-9.3,24.2-36.2,24.2H123.8z M140.7,24.4V92h15.9c10.1,0,16.2-3.7,16.2-11.1V35.6c0-7.4-6.1-11.1-16.2-11.1H140.7z"/>
	<path class="st0" d="M219.6,104.9c0,2.7-0.9,3.7-3.6,3.7h-12.6c-2.7,0-3.7-1-3.7-3.7v-12c0-2.7,1-3.7,3.7-3.7H216
		c2.7,0,3.6,1,3.6,3.7V104.9z"/>
	<path class="st0" d="M281.9,72.9v31.9c0,2.7-0.9,3.8-3.6,3.8h-12.9c-2.7,0-3.6-1.2-3.6-3.8V11.7c0-2.7,0.9-3.9,3.6-3.9h31.1
		c26.8,0,35.9,11.7,35.9,24.2v16.7c0,12.4-9,24.1-35.9,24.1H281.9z M281.9,24.4v31.9h14.7c9.9,0,16-3.7,16-11v-9.8
		c0-7.4-6.1-11.1-16-11.1H281.9z"/>
	<path class="st0" d="M347.6,30.8c0-12.4,9.2-24.2,36-24.2c26.8,0,36,11.7,36,24.2v54.8c0,12.4-9.2,24.2-36,24.2
		c-26.8,0-36-11.7-36-24.2V30.8z M399.7,34.4c0-7.4-6.1-11.1-16-11.1c-9.9,0-15.9,3.7-15.9,11.1v47.7c0,7.4,5.9,11.1,15.9,11.1
		c9.9,0,16-3.7,16-11.1V34.4z"/>
	<path class="st0" d="M516,61.9c1.2,5,2.2,13.3,2.4,14.7c0.1-1,1-8,2.7-14.5l12.7-50.5c0.6-2.4,1.8-3.7,4.3-3.7h11.3
		c2.7,0,3.4,1.3,2.8,3.7l-23.6,93.4c-0.6,2.5-2.1,3.7-4.6,3.7h-12.6c-2.2,0-3.6-1.3-4.1-3.7l-13-51.6c-0.9-3.3-1.9-11.9-2.1-13.5
		c-0.1,1.5-1.3,10.5-2.1,13.5l-13,51.6c-0.6,2.5-1.9,3.7-4.6,3.7h-12.6c-2.2,0-3.6-1.3-4.1-3.7l-23.6-93.4c-0.6-2.4,0.1-3.7,2.8-3.7
		h13.2c2.5,0,3.7,1.3,4.3,3.7l12.4,50.5c1.3,5.5,2.4,12.4,2.4,12.4s0.7-4.9,2.7-12.4l12.7-50.5c0.6-2.4,1.8-3.7,4.4-3.7h12
		c2.7,0,3.9,1.3,4.4,3.7L516,61.9z"/>
	<path class="st0" d="M569.6,108.6c-2.7,0-3.6-1.2-3.6-3.8V11.7c0-2.7,0.9-3.9,3.6-3.9h50.7c2.5,0,3.7,0.9,3.7,3.6v9.3
		c0,2.7-1.2,3.7-3.7,3.7h-34.2v24h31.7c2.7,0,3.9,0.9,3.9,3.6v8.9c0,2.5-1.2,3.6-3.9,3.6h-31.7V92h35.7c2.7,0,3.7,0.9,3.7,3.6v9.3
		c0,2.7-1,3.7-3.7,3.7H569.6z"/>
	<path class="st0" d="M662,70.2v34.5c0,2.7-0.9,3.8-3.6,3.8h-12.9c-2.7,0-3.6-1.2-3.6-3.8V11.7c0-2.7,0.9-3.9,3.6-3.9h31.1
		c26.8,0,35.9,11.7,35.9,24.2v14.1c0,8.7-4.5,17-16.3,21.3l16,37.3c1,2.4-0.7,3.8-3.4,3.8h-13c-2.1,0-2.7-1.5-3.7-3.8l-14.5-34.5
		h-0.9H662z M662,24.4v29.2h14.7c9.9,0,16-3.7,16-11.1v-7c0-7.4-6.1-11.1-16-11.1H662z"/>
</g>
</svg>
