<svg data-name="Layer 1" xmlns="http://www.w3.org/2000/svg" xmlns:xlink="http://www.w3.org/1999/xlink" viewBox="0 0 1080 1080"><defs><style>.cls-1{fill:none;}.cls-2{clip-path:url(#clip-path);}.cls-3{clip-path:url(#clip-path-2);}.cls-4{fill:#f2f2f2;}.cls-5{fill:#fff;}.cls-6{opacity:0.9;}.cls-7{clip-path:url(#clip-path-3);}.cls-8{fill:#e5e5e5;}.cls-9{fill:#ff6400;}.cls-10{fill:#161615;}.cls-11{fill:#06c5ac;}.cls-12{fill:#6d6d6d;}</style><clipPath id="clip-path"><rect class="cls-1" width="1080" height="1080"/></clipPath><clipPath id="clip-path-2"><path class="cls-1" d="M2.32,540C2.32,837,243,1077.68,540,1077.68S1077.68,837,1077.68,540,837,2.32,540,2.32,2.32,243,2.32,540"/></clipPath><clipPath id="clip-path-3"><rect class="cls-1" x="-681.19" y="-391.25" width="2210.75" height="1462.24"/></clipPath></defs><title>Buy From Home</title><g class="cls-2"><g class="cls-3"><rect class="cls-4" x="-16226.61" y="-2620.17" width="18362.1" height="6768.57"/><rect class="cls-5" x="-832.99" y="-1709.01" width="4078.5" height="4610"/><g class="cls-6"><g class="cls-7"><rect class="cls-8" x="-681.19" y="-391.25" width="2210.75" height="1462.23"/></g></g><rect class="cls-9" x="468.96" y="403.88" width="410.35" height="245.36"/><polygon class="cls-5" points="754.42 250.61 1153.03 380.15 1153.03 686.88 623.7 686.88 623.7 470.03 483.25 470.03 483.25 686.88 279.75 686.88 279.75 380.15 754.42 250.61"/><rect class="cls-10" x="-176.63" y="649.24" width="1403.61" height="428.6"/><path class="cls-11" d="M389.15,720.8A104.78,104.78,0,0,1,493.93,825.58H284.36A104.79,104.79,0,0,1,389.15,720.8"/><path class="cls-11" d="M823.65,564.54a84.7,84.7,0,0,1,84.7,84.7H739a84.7,84.7,0,0,1,84.7-84.7"/><path class="cls-11" d="M1034.57,490.89a158.36,158.36,0,0,1,158.35,158.35H876.22a158.36,158.36,0,0,1,158.35-158.35"/><path class="cls-11" d="M851.85,877.75A111.3,111.3,0,0,1,963.16,989.06H740.54A111.3,111.3,0,0,1,851.85,877.75"/><path class="cls-11" d="M9.75,526.56c165.14,0,299,133.88,299,299h-598c0-165.14,133.88-299,299-299"/><polygon class="cls-5" points="1263.2 440.38 754.01 273.22 176.65 439.88 164.65 398.32 754.82 227.99 1276.67 399.3 1263.2 440.38"/><polygon class="cls-12" points="279.75 413.1 752.21 281.35 1146.44 413.1 1146.44 446.24 752.21 310.23 279.75 442.26 279.75 413.1"/><path class="cls-5" d="M-658.58-1492.88V2179.47l2397.49-80.89V-1573.77ZM539.6,1081.72C240.31,1081.72-2.32,839.1-2.32,539.81S240.31-2.11,539.6-2.11s541.92,242.63,541.92,541.92S838.89,1081.72,539.6,1081.72"/></g></g></svg>